<svg width="196" height="47" viewBox="0 0 196 47" fill="none" xmlns="http://www.w3.org/2000/svg">
<path d="M0 37.2215V30.9292C2.48273 32.6255 5.0913 33.9278 7.8257 34.8361C10.5601 35.7444 13.1422 36.1992 15.5734 36.1992C16.6317 36.1992 17.5263 36.1726 18.2562 36.1206C18.9848 36.0687 19.7184 35.9597 20.4558 35.7925C21.1944 35.6266 21.7796 35.3909 22.2137 35.0844C22.6478 34.7791 22.9989 34.3636 23.2682 33.8404C23.5375 33.3159 23.6721 32.6863 23.6721 31.9516C23.6721 31.2358 23.5287 30.6113 23.243 30.0779C22.9561 29.5446 22.5824 29.0987 22.1231 28.7402C21.6626 28.3829 21.0032 28.046 20.1437 27.7318C19.2843 27.4164 18.4286 27.1541 17.5792 26.9451C16.7273 26.7348 15.6162 26.4726 14.2446 26.1584C14.1754 26.1407 14.1187 26.128 14.0759 26.1191C14.0319 26.1103 13.9803 26.1014 13.9199 26.0925C13.8582 26.0837 13.8029 26.071 13.75 26.0533C10.3651 25.2666 7.70867 24.3709 5.78213 23.3664C3.85434 22.3618 2.49657 21.1988 1.70633 19.8788C0.916081 18.5601 0.520958 16.9132 0.520958 14.937C0.520958 11.7396 1.6799 9.36302 3.99779 7.80738C6.31568 6.25046 9.53203 5.47391 13.6468 5.47391C15.7634 5.47391 17.9907 5.75767 20.3262 6.32521C22.6604 6.894 24.7405 7.63256 26.5626 8.54086V14.3872C20.9025 12.2729 16.3712 11.2151 12.9686 11.2151C11.8751 11.2151 10.9515 11.267 10.1964 11.3722C9.44017 11.4773 8.75436 11.661 8.13903 11.9232C7.52244 12.1855 7.06188 12.5693 6.75862 13.076C6.45409 13.5828 6.30183 14.2212 6.30183 14.9902C6.30183 16.4407 6.92724 17.5061 8.17678 18.1889C9.42758 18.8704 11.7279 19.5951 15.0788 20.364C16.9009 20.7833 18.4462 21.1773 19.7146 21.5447C20.9805 21.9108 22.1885 22.3402 23.3336 22.8292C24.48 23.3182 25.4036 23.8338 26.1071 24.376C26.8105 24.9169 27.4258 25.5592 27.9556 26.3028C28.4853 27.0452 28.8629 27.875 29.0894 28.7934C29.3146 29.7106 29.4279 30.7633 29.4279 31.9516C29.4279 35.3783 28.2211 37.9081 25.8076 39.5423C23.394 41.1765 19.9827 41.9936 15.5734 41.9936C12.9522 41.9936 10.1524 41.5477 7.17513 40.6558C4.19787 39.7653 1.80574 38.6201 0 37.2215ZM55.7161 11.2151H37.7733V20.6351H51.5497V26.4282H37.7733V36.1992H55.7161V41.9936H32.1748V5.47391H55.7161V11.2151ZM86.649 5.47391L74.3309 23.7464L86.649 41.9936H79.7217L69.4347 26.6297H64.6429V41.9936H58.862V5.47391H64.6429V20.8365H69.4347L79.7217 5.47391H86.649ZM101.846 20.6807H108.051L105.417 11.7649H104.558L101.846 20.6807ZM114.74 41.9936L109.874 26.4219H100.101L95.1567 41.9936H89.1418L100.443 5.47391H109.454L120.808 41.9936H114.74ZM182.043 20.6947C183.449 20.6947 184.617 20.6237 185.545 20.4844C187.033 20.2601 187.668 19.9422 187.915 19.8155C188.527 19.5051 189.237 19.1428 189.746 18.3599C190.641 16.9816 190.213 15.3576 190.05 14.7406C189.833 13.9134 189.46 13.3928 189.382 13.2863C189.204 13.0418 188.997 12.8189 188.762 12.6175C188.119 12.0664 187.282 11.6965 186.249 11.5027C185.216 11.3114 183.814 11.2151 182.043 11.2151H174.856V20.6947H182.043ZM181.783 5.47391C183.397 5.47391 184.868 5.57779 186.197 5.78808C187.525 5.9971 188.679 6.291 189.66 6.66598C190.641 7.04222 191.505 7.51854 192.251 8.09494C192.997 8.67134 193.619 9.30601 194.114 9.99516C194.608 10.6868 195.007 11.4773 195.312 12.3679C195.761 13.6854 195.913 14.7546 195.95 15.1346C196.126 16.9601 195.795 18.3802 195.658 18.9009C195.411 19.8408 194.967 21.5282 193.508 22.9597C192.945 23.512 192.446 23.8148 191.822 24.1936C191.417 24.4394 190.013 25.3059 187.693 25.8721C186.01 26.2826 184.039 26.4878 181.783 26.4878H174.856V41.9936H169.074V5.47391H181.783Z" fill="#2E5B36" style="fill:#2E5B36;fill:color(display-p3 0.1804 0.3569 0.2118);fill-opacity:1;"/>
<path d="M129.468 25.3274L129.461 25.2704L129.453 25.2058C129.375 24.6243 129.336 24.0504 129.336 23.5006C129.336 22.8178 129.393 22.1211 129.506 21.4307L129.516 21.3711L129.527 21.309C130.46 15.896 134.709 11.699 140.099 10.8654C140.736 10.7666 141.386 10.7172 142.034 10.7172C142.682 10.7172 143.333 10.7666 143.969 10.8654C149.359 11.699 153.607 15.896 154.541 21.309L154.552 21.3711L154.562 21.4307C154.674 22.1211 154.731 22.8166 154.731 23.5006C154.731 24.0504 154.692 24.6243 154.615 25.2058L154.606 25.2691L154.599 25.3274C153.812 30.8443 149.441 35.2896 143.969 36.1346C143.333 36.2334 142.682 36.2828 142.034 36.2828C141.386 36.2828 140.736 36.2334 140.099 36.1346C134.627 35.2896 130.256 30.8443 129.468 25.3274ZM165.12 20.4007H160.11C159.47 16.6193 157.636 13.076 154.902 10.3613C152.168 7.64775 148.623 5.85141 144.855 5.2598V0H139.212V5.2598C135.444 5.85141 131.899 7.64775 129.165 10.3613C126.432 13.076 124.598 16.6193 123.958 20.4007H118.435V26.3535H123.915C124.509 30.1653 126.305 33.7428 129.028 36.5019C131.784 39.2952 135.377 41.1397 139.212 41.7415V47H144.855V41.7415C148.69 41.1397 152.285 39.2952 155.04 36.5019C157.762 33.7428 159.559 30.1653 160.153 26.3535H165.89V20.4007H165.12Z" fill="#46CA3B" style="fill:#46CA3B;fill:color(display-p3 0.2745 0.7922 0.2314);fill-opacity:1;"/>
</svg>
